<svg width="40" height="40" viewBox="0 0 40 40" fill="none" xmlns="http://www.w3.org/2000/svg">
<circle cx="20" cy="20" r="19.5" stroke="white"/>
<g clip-path="url(#clip0_7068_24)">
<path d="M16.5471 26.6668H13.5702V17.0802H16.5471V26.6668ZM15.057 15.7725C14.1051 15.7725 13.333 14.9841 13.333 14.0321C13.333 13.5749 13.5146 13.1364 13.838 12.8131C14.1613 12.4897 14.5998 12.3081 15.057 12.3081C15.5143 12.3081 15.9528 12.4897 16.2761 12.8131C16.5994 13.1364 16.7811 13.5749 16.7811 14.0321C16.7811 14.9841 16.0086 15.7725 15.057 15.7725ZM27.6888 26.6668H24.7183V22.0001C24.7183 20.8879 24.6958 19.4616 23.1705 19.4616C21.6228 19.4616 21.3856 20.67 21.3856 21.92V26.6668H18.4119V17.0802H21.267V18.3879H21.3086C21.7061 17.6347 22.6769 16.8398 24.1253 16.8398C27.1381 16.8398 27.692 18.8238 27.692 21.4007V26.6668H27.6888Z" fill="white"/>
</g>
<defs>
<clipPath id="clip0_7068_24">
<rect width="16.4103" height="16.4103" fill="white" transform="translate(12.3076 12.3076)"/>
</clipPath>
</defs>
</svg>
