<svg width="22" height="23" viewBox="0 0 22 23" fill="none" xmlns="http://www.w3.org/2000/svg">
<path fill-rule="evenodd" clip-rule="evenodd" d="M0.22825 4.29125C4.20906 4.24069 8.03662 2.71586 11 0C13.9632 2.71637 17.7908 4.24171 21.7717 4.29266C21.923 5.20569 22 6.14682 22 7.1034C22 14.4428 17.4075 20.6865 11 23C4.5925 20.6851 0 14.4414 0 7.10199C0 6.14401 0.0783749 5.20569 0.22825 4.29125ZM16.0971 9.49975C16.3476 9.23483 16.4862 8.88001 16.4831 8.51171C16.4799 8.14341 16.3353 7.79111 16.0804 7.53067C15.8254 7.27023 15.4806 7.12251 15.1201 7.11931C14.7595 7.1161 14.4122 7.25769 14.1529 7.51356L9.625 12.1391L7.84712 10.3229C7.5878 10.067 7.24047 9.92544 6.87995 9.92864C6.51943 9.93184 6.17456 10.0796 5.91962 10.34C5.66469 10.6004 5.52008 10.9527 5.51695 11.321C5.51381 11.6893 5.65241 12.0442 5.90288 12.3091L8.65287 15.1184C8.91073 15.3818 9.2604 15.5297 9.625 15.5297C9.9896 15.5297 10.3393 15.3818 10.5971 15.1184L16.0971 9.49975Z" fill="#546BFF"/>
</svg>
