<svg width="40" height="40" viewBox="0 0 40 40" fill="none" xmlns="http://www.w3.org/2000/svg">
<circle cx="20" cy="20" r="19.5" stroke="white"/>
<path d="M25.5413 15.42C24.1984 14.0739 22.4099 13.3335 20.5093 13.3335C16.5862 13.3335 13.3939 16.5258 13.3939 20.4489C13.3939 21.7021 13.7208 22.9264 14.3426 24.0066L13.333 27.6925L17.1054 26.7021C18.1439 27.2694 19.3138 27.5675 20.5061 27.5675H20.5093C24.4292 27.5675 27.692 24.3752 27.692 20.4521C27.692 18.5514 26.8843 16.7662 25.5413 15.42ZM20.5093 26.3688C19.4452 26.3688 18.4035 26.0835 17.4965 25.545L17.2817 25.4168L15.0445 26.0034L15.6407 23.8207L15.4997 23.5963C14.9067 22.654 14.5958 21.5675 14.5958 20.4489C14.5958 17.1893 17.2497 14.5354 20.5125 14.5354C22.0926 14.5354 23.5766 15.1508 24.692 16.2694C25.8074 17.388 26.4933 18.872 26.4901 20.4521C26.4901 23.7149 23.7689 26.3688 20.5093 26.3688ZM23.7529 21.9393C23.5766 21.8495 22.7016 21.42 22.5381 21.3623C22.3747 21.3014 22.2561 21.2726 22.1375 21.4521C22.0189 21.6316 21.6792 22.029 21.5734 22.1508C21.4708 22.2694 21.3651 22.2854 21.1888 22.1957C20.1439 21.6732 19.458 21.263 18.7689 20.0803C18.5862 19.7662 18.9516 19.7886 19.2913 19.1091C19.349 18.9905 19.3202 18.888 19.2753 18.7982C19.2304 18.7085 18.8747 17.8335 18.7272 17.4777C18.583 17.1316 18.4356 17.1797 18.3266 17.1732C18.224 17.1668 18.1054 17.1668 17.9869 17.1668C17.8683 17.1668 17.676 17.2117 17.5125 17.388C17.349 17.5675 16.8907 17.997 16.8907 18.872C16.8907 19.747 17.5285 20.5931 17.6151 20.7117C17.7048 20.8303 18.8683 22.6252 20.6535 23.3976C21.7817 23.8848 22.224 23.9264 22.7881 23.8431C23.1311 23.7918 23.8394 23.4136 23.9869 22.997C24.1343 22.5803 24.1343 22.2245 24.0894 22.1508C24.0478 22.0707 23.9292 22.0258 23.7529 21.9393Z" fill="white"/>
</svg>
